<svg xmlns="http://www.w3.org/2000/svg" viewBox="0 0 1200 760">
<defs><linearGradient id="g" x1="0" y1="0" x2="1" y2="1"><stop stop-color="#0a1020"/><stop offset="1" stop-color="#3a247a"/></linearGradient><filter id="s"><feDropShadow dx="0" dy="24" stdDeviation="25" flood-opacity=".3"/></filter></defs>
<rect width="1200" height="760" fill="#edeaf5"/><rect x="55" y="45" width="1090" height="670" rx="28" fill="#fff" filter="url(#s)"/><rect x="55" y="45" width="1090" height="62" rx="28" fill="#0a1020"/><circle cx="92" cy="76" r="7" fill="#fff" opacity=".8"/><circle cx="116" cy="76" r="7" fill="#fff" opacity=".4"/><circle cx="140" cy="76" r="7" fill="#fff" opacity=".25"/>
<text x="90" y="153" font-family="Arial" font-size="19" font-weight="700" fill="#0a1020">CONGOPAY SERVICES</text><text x="90" y="183" font-family="Arial" font-size="13" fill="#6d6875">Concept fintech — paiements, encaissements et gestion simplifiée.</text>
<rect x="90" y="215" width="1020" height="180" rx="22" fill="url(#g)"/><text x="125" y="267" font-family="Arial" font-size="34" font-weight="700" fill="white">Payez. Encaissez. Gardez le contrôle.</text><text x="125" y="303" font-family="Arial" font-size="16" fill="#e3ddff">Une expérience financière conçue pour inspirer confiance.</text><rect x="125" y="335" width="168" height="38" rx="19" fill="#fff"/><text x="151" y="360" font-family="Arial" font-size="13" font-weight="700" fill="#17102b">Créer un compte</text>
<rect x="90" y="425" width="500" height="210" rx="18" fill="#f7f5fb"/><rect x="615" y="425" width="495" height="210" rx="18" fill="#f7f5fb"/><text x="120" y="463" font-family="Arial" font-size="13" fill="#7d7786">SOLDE DISPONIBLE</text><text x="120" y="515" font-family="Arial" font-size="38" font-weight="700" fill="#161021">$ 12,840.50</text><polyline points="120,590 185,565 245,578 310,535 375,550 445,505 535,520" fill="none" stroke="#6547b7" stroke-width="6" stroke-linecap="round" stroke-linejoin="round"/><text x="645" y="463" font-family="Arial" font-size="13" fill="#7d7786">ACTIONS RAPIDES</text><rect x="645" y="490" width="125" height="90" rx="14" fill="#171126"/><rect x="790" y="490" width="125" height="90" rx="14" fill="#e7e0ff"/><rect x="935" y="490" width="125" height="90" rx="14" fill="#e7e0ff"/><text x="672" y="540" font-family="Arial" font-size="13" fill="white">Envoyer</text><text x="816" y="540" font-family="Arial" font-size="13" fill="#171126">Recevoir</text><text x="962" y="540" font-family="Arial" font-size="13" fill="#171126">Historique</text>
</svg>
